<svg xmlns="http://www.w3.org/2000/svg" xmlns:xlink="http://www.w3.org/1999/xlink" viewBox="0 0 1821.38 10148.5"><defs><style>.cls-1,.cls-10,.cls-14,.cls-16,.cls-18,.cls-20,.cls-4,.cls-8{fill:none;stroke-miterlimit:10;}.cls-1{stroke:#e63216;}.cls-1,.cls-10,.cls-14,.cls-16,.cls-18,.cls-20,.cls-8{stroke-width:10px;}.cls-11,.cls-15,.cls-17,.cls-19,.cls-2,.cls-21,.cls-5,.cls-9{font-size:96px;font-family:MyriadPro-Regular, Myriad Pro;}.cls-3{letter-spacing:-0.01em;}.cls-4{stroke:#273b90;stroke-width:15px;}.cls-5{fill:#273b90;}.cls-6{letter-spacing:0.01em;}.cls-7{letter-spacing:0.01em;}.cls-8{stroke:#51ae32;}.cls-9{fill:#51ae32;}.cls-10{stroke:#b14e98;}.cls-11{fill:#b14e98;}.cls-12{letter-spacing:0em;}.cls-13{letter-spacing:0.02em;}.cls-14{stroke:#fdca6b;}.cls-15{fill:#fdca6b;}.cls-16{stroke:#6ec8e5;}.cls-17{fill:#6ec8e5;}.cls-18{stroke:#db89b9;}.cls-19{fill:#db89b9;}.cls-20{stroke:#2a4899;}.cls-21{fill:#2a4899;}.cls-22{letter-spacing:-0.01em;}</style></defs><g id="Laag_1" data-name="Laag 1"><image x="7.5" y="5" width="1080" height="10136" xlink:href="2020-11-12_17-35-14.PNG"/><rect class="cls-1" x="7.5" y="5" width="1806.38" height="1806.38"/><rect class="cls-1" x="7.5" y="1813.09" width="1806.38" height="8327.91"/></g><g id="Tekst"><text class="cls-2" transform="translate(1295.4 88.84)">HEADER</text><text class="cls-2" transform="translate(1382.77 1944.11)"><tspan class="cls-3">M</tspan><tspan x="76.22" y="0">AIN</tspan></text></g><g id="Sections"><rect class="cls-4" x="7.5" y="1811.38" width="1806.38" height="6446.3"/><text class="cls-5" transform="translate(1441.76 8195.29)"><tspan class="cls-6">S</tspan><tspan x="47.9" y="0">e</tspan><tspan class="cls-7" x="96" y="0">c</tspan><tspan x="140.25" y="0">tion</tspan></text><text class="cls-5" transform="translate(1441.76 10100.39)"><tspan class="cls-6">S</tspan><tspan x="47.9" y="0">e</tspan><tspan class="cls-7" x="96" y="0">c</tspan><tspan x="140.25" y="0">tion</tspan></text><text class="cls-5" transform="translate(1441.76 9573.6)"><tspan class="cls-6">S</tspan><tspan x="47.9" y="0">e</tspan><tspan class="cls-7" x="96" y="0">c</tspan><tspan x="140.25" y="0">tion</tspan></text><rect class="cls-4" x="7.5" y="8257.68" width="1806.38" height="1402.89"/><rect class="cls-4" x="7.5" y="9660.57" width="1806.38" height="480.43"/><rect class="cls-8" x="265.63" y="1842.77" width="955.91" height="98.34"/><text class="cls-9" transform="translate(1087.5 1921.8)">H2</text><rect class="cls-10" x="556.69" y="3063.28" width="955.91" height="835.25"/><text class="cls-11" transform="translate(1221.99 3860.54)"><tspan class="cls-12">A</tspan><tspan class="cls-13" x="58.46" y="0">r</tspan><tspan x="92.16" y="0">ticle</tspan></text><rect class="cls-14" x="586.05" y="3654.45" width="611.34" height="147.06"/><text class="cls-15" transform="translate(1052.98 3757.84)">H3</text><rect class="cls-16" x="586.05" y="3801.51" width="611.34" height="90.38"/><rect class="cls-10" x="7.5" y="111.98" width="1398.89" height="203.92"/><text class="cls-11" transform="translate(1137.37 282.09)"><tspan class="cls-6">M</tspan><tspan x="77.76" y="0">enu</tspan></text><text class="cls-17" transform="translate(1113.88 3883.46)">P</text><rect class="cls-18" x="579.44" y="3090.74" width="720.29" height="490.96"/><text class="cls-19" transform="translate(1099.15 3549.06)">IMG</text><rect class="cls-20" x="7.5" y="109.64" width="168.26" height="416.51"/><text class="cls-21" transform="translate(15.34 454.73)">n<tspan class="cls-22" x="53.28" y="0">a</tspan><tspan x="98.78" y="0">v</tspan></text><text x="7.5" y="5"/></g></svg>